<?xml version="1.0" encoding="UTF-8"?><svg id="Capa_2" xmlns="http://www.w3.org/2000/svg" viewBox="0 0 221.52 221.51"><defs><style>.cls-1{fill:#264de4;}.cls-2{fill:#fff;}.cls-3{fill:none;stroke:#264de4;stroke-miterlimit:10;stroke-width:10px;}.cls-4{fill:#19003e;}.cls-5{fill:#2965f1;}.cls-6{fill:#ebebeb;}</style></defs><g id="Layer_1"><path class="cls-2" d="M208.55,70.33c5.31,12.84,7.97,26.31,7.97,40.42s-2.66,27.59-7.97,40.42c-5.31,12.84-12.99,24.28-23.05,34.33-10.05,10.05-21.49,17.73-34.32,23.04s-26.31,7.97-40.42,7.97-27.59-2.66-40.42-7.97c-12.84-5.31-24.28-12.99-34.33-23.04s-17.73-21.49-23.04-34.33c-5.32-12.83-7.97-26.3-7.97-40.42s2.65-27.58,7.97-40.42c5.31-12.83,12.99-24.27,23.04-34.32s21.49-17.74,34.33-23.05c12.83-5.31,26.3-7.96,40.42-7.96s27.59,2.65,40.42,7.96c12.83,5.31,24.27,13,34.32,23.05,10.06,10.05,17.74,21.49,23.05,34.32Z"/><path class="cls-4" d="M119.69,110.91c.5,1.71,.75,3.25,.75,4.6,0,.85-.5,1.28-1.49,1.28h-17.86c.78-8.05,4.2-12.08,10.26-12.08,2.5,0,4.39,.6,5.67,1.82,1.28,1.21,2.17,2.67,2.67,4.38Z"/><path class="cls-4" d="M119.21,127.17h-16.9c4.42-16.54,7.2-27.48,8.35-32.83,.64,2.78,1.49,6.17,2.56,10.16s2.16,8.09,3.26,12.3c1.11,4.21,2.02,7.66,2.73,10.37Z"/><path class="cls-3" d="M70.34,208.54c-12.84-5.31-24.28-12.99-34.33-23.04s-17.73-21.49-23.04-34.33c-5.32-12.83-7.97-26.3-7.97-40.42s2.65-27.58,7.97-40.42c5.31-12.83,12.99-24.27,23.04-34.32s21.49-17.74,34.33-23.05c12.83-5.31,26.3-7.96,40.42-7.96s27.59,2.65,40.42,7.96c12.83,5.31,24.27,13,34.32,23.05,10.06,10.05,17.74,21.49,23.05,34.32,5.31,12.84,7.97,26.31,7.97,40.42s-2.66,27.59-7.97,40.42c-5.31,12.84-12.99,24.28-23.05,34.33-10.05,10.05-21.49,17.73-34.32,23.04s-26.31,7.97-40.42,7.97-27.59-2.66-40.42-7.97Z"/><g><path class="cls-1" d="M110.7,169.89l-42.59-11.82-9.49-106.44h104.28l-9.5,106.42-42.7,11.84h0Z"/><path class="cls-5" d="M145.27,151.27l8.12-90.94h-42.62v100.51l34.51-9.57h0Z"/><path class="cls-6" d="M80.38,99.8l1.17,13.05h29.21v-13.05h-30.38Z"/><path class="cls-6" d="M78.03,73.38l1.19,13.05h31.55v-13.05h-32.73Z"/><path class="cls-6" d="M110.76,133.71l-.06,.02-14.54-3.93-.93-10.41h-13.1l1.83,20.5,26.74,7.42,.06-.02v-13.58h0Z"/><path class="cls-2" d="M141.06,99.8l2.36-26.42h-32.7v13.05h18.4l-1.19,13.37h-17.21v13.05h16.08l-1.52,16.93-14.56,3.93v13.58l26.76-7.42,.2-2.21,3.07-34.37,.32-3.51h0Z"/></g></g></svg>