<?xml version="1.0" encoding="UTF-8"?><svg xmlns="http://www.w3.org/2000/svg" viewBox="0 0 700 700"><g id="a"/><g id="b"/><g id="c"/><g id="d"><path d="M545.31,589.65H151.27c-26.01,0-47.17-21.16-47.17-47.17V148.44c0-26.01,21.16-47.17,47.17-47.17h394.04c26.01,0,47.17,21.16,47.17,47.17v394.04c0,26.01-21.16,47.17-47.17,47.17ZM151.28,129.02c-10.71,0-19.43,8.71-19.43,19.43v394.04c0,10.71,8.71,19.43,19.43,19.43h394.04c10.71,0,19.43-8.71,19.43-19.43V148.45c0-10.71-8.72-19.43-19.43-19.43H151.28Z"/><path d="M255.05,276.65c2.75-13.76,5.43-27.16,8.13-40.65h206.23c-.69,3.55-1.36,7.04-2.05,10.53-7.78,39.07-15.57,78.14-23.35,117.21-3.55,17.8-7.09,35.61-10.61,53.41-.22,1.12-.74,1.65-1.86,2.02-35.78,11.84-71.55,23.73-107.33,35.57-.81,.27-1.89,.28-2.68-.02-30.98-11.81-61.94-23.66-92.9-35.51-.46-.18-.9-.4-1.46-.65,1.52-7.72,3.02-15.37,4.54-23.03,1.59-8.04,3.21-16.07,4.79-24.11,.18-.94,.29-1.62,1.55-1.62,12.94,.05,25.87,.04,38.81,.05,.12,0,.24,.06,.58,.15-.69,3.54-1.37,7.09-2.07,10.65-.52,2.66-1.02,5.33-1.6,7.97-.22,1,.02,1.45,1,1.82,18.5,7.03,36.98,14.11,55.49,21.13,.69,.26,1.63,.26,2.34,.03,21.43-7.06,42.85-14.15,64.25-21.29,.57-.19,1.28-.86,1.4-1.42,3.06-15,6.05-30.02,9.09-45.26H241.75c2.7-13.7,5.36-27.15,8.04-40.74h165.68c1.72-8.75,3.42-17.38,5.17-26.22-55.2,0-110.26,0-165.58,0h0Z"/></g><g id="e"/></svg>