<?xml version="1.0" encoding="UTF-8"?><svg id="Capa_2" xmlns="http://www.w3.org/2000/svg" viewBox="0 0 221.51 221.51"><defs><style>.cls-1{fill:#df4114;}.cls-2,.cls-3{fill:#fff;}.cls-4{fill:#ea5c1b;}.cls-5{fill:none;}.cls-5,.cls-3{stroke:#e85823;stroke-miterlimit:10;stroke-width:10px;}.cls-6{fill:#f1f1f1;}</style></defs><g id="Layer_1"><path class="cls-5" d="M208.55,70.33c5.31,12.84,7.96,26.31,7.96,40.42s-2.65,27.59-7.96,40.42c-5.31,12.84-12.99,24.28-23.05,34.33-10.05,10.05-21.49,17.73-34.32,23.04s-26.31,7.97-40.42,7.97-27.59-2.66-40.42-7.97c-12.84-5.31-24.28-12.99-34.33-23.04-10.05-10.05-17.73-21.49-23.04-34.33-5.32-12.83-7.97-26.3-7.97-40.42s2.65-27.58,7.97-40.42c5.31-12.83,12.99-24.27,23.04-34.32,10.05-10.05,21.49-17.74,34.33-23.05,12.83-5.31,26.3-7.96,40.42-7.96s27.59,2.65,40.42,7.96c12.83,5.31,24.27,13,34.32,23.05,10.06,10.05,17.74,21.49,23.05,34.32Z"/><path class="cls-3" d="M70.34,208.54c-12.84-5.31-24.28-12.99-34.33-23.04-10.05-10.05-17.73-21.49-23.04-34.33-5.32-12.83-7.97-26.3-7.97-40.42s2.65-27.58,7.97-40.42c5.31-12.83,12.99-24.27,23.04-34.32,10.05-10.05,21.49-17.74,34.33-23.05,12.83-5.31,26.3-7.96,40.42-7.96s27.59,2.65,40.42,7.96c12.83,5.31,24.27,13,34.32,23.05,10.06,10.05,17.74,21.49,23.05,34.32,5.31,12.84,7.96,26.31,7.96,40.42s-2.65,27.59-7.96,40.42c-5.31,12.84-12.99,24.28-23.05,34.33-10.05,10.05-21.49,17.73-34.32,23.04s-26.31,7.97-40.42,7.97-27.59-2.66-40.42-7.97Z"/><g><polygon class="cls-1" points="110.69 170.67 67.54 158.7 57.92 50.84 163.59 50.84 153.96 158.68 110.69 170.67 110.69 170.67"/><polygon class="cls-4" points="145.72 151.81 153.95 59.65 110.75 59.65 110.75 161.5 145.72 151.81 145.72 151.81"/><polygon class="cls-6" points="110.75 112.89 110.75 99.66 93.25 99.66 92.04 86.11 110.75 86.11 110.75 72.88 110.71 72.88 77.58 72.88 77.9 76.43 81.15 112.89 110.75 112.89 110.75 112.89"/><polygon class="cls-6" points="110.75 134.01 110.7 134.03 95.97 130.05 95.02 119.5 87.86 119.5 81.74 119.5 83.6 140.27 110.69 147.79 110.75 147.78 110.75 134.01 110.75 134.01"/><polygon class="cls-2" points="141.46 99.66 137.89 99.66 110.71 99.66 110.71 112.89 127 112.89 125.46 130.04 110.71 134.02 110.71 147.79 137.83 140.27 138.03 138.04 141.14 103.21 141.46 99.66 141.46 99.66"/><polygon class="cls-2" points="143.85 72.88 110.71 72.88 110.71 81.1 110.71 86.08 110.71 86.11 142.62 86.11 142.62 86.11 142.66 86.11 142.93 83.14 143.53 76.43 143.85 72.88 143.85 72.88"/></g></g></svg>