<?xml version="1.0" encoding="UTF-8"?><svg xmlns="http://www.w3.org/2000/svg" viewBox="0 0 700 700"><g id="a"/><g id="b"/><g id="c"><path d="M538.87,581.15H144.83c-26.01,0-47.17-21.16-47.17-47.17V139.94c0-26.01,21.16-47.17,47.17-47.17h394.04c26.01,0,47.17,21.16,47.17,47.17v394.04c0,26.01-21.16,47.17-47.17,47.17ZM144.84,120.52c-10.71,0-19.43,8.71-19.43,19.43v394.04c0,10.71,8.71,19.43,19.43,19.43h394.04c10.71,0,19.43-8.71,19.43-19.43V139.95c0-10.71-8.72-19.43-19.43-19.43H144.84Z"/><path d="M232.14,208.97l19.94,226.15,89.48,29.83,90.05-29.83,19.94-226.15H232.14Zm176.1,73.08h-105.02l2.34,28.23h100.33l-7.77,84.79-55.94,15.43v.17h-.63l-56.39-15.6-3.43-43.31h27.25l2,21.77,30.57,8.28,30.68-8.28,3.43-35.54h-95.36l-7.31-83.19h137.76l-2.51,27.25Z"/></g><g id="d"/><g id="e"/></svg>