<?xml version="1.0" encoding="UTF-8"?><svg xmlns="http://www.w3.org/2000/svg" viewBox="0 0 74.91 74.91"><defs><style>.d{fill:#fff;}.e{fill:#242424;}</style></defs><g id="a"/><g id="b"><g id="c"><g><rect class="e" width="74.91" height="74.91" rx="21.75" ry="21.75"/><g><path class="d" d="M24.74,20.13c2.44,0,4.52,.22,6.24,.66,1.71,.44,3.11,1.07,4.2,1.87,1.08,.8,1.87,1.78,2.37,2.93,.49,1.15,.74,2.44,.74,3.85,0,.77-.11,1.52-.34,2.23-.23,.72-.58,1.39-1.07,2.01-.49,.62-1.11,1.19-1.87,1.71-.76,.52-1.67,.97-2.74,1.35,2.33,.55,4.05,1.44,5.17,2.67,1.12,1.23,1.67,2.82,1.67,4.78,0,1.47-.29,2.83-.87,4.09-.58,1.26-1.44,2.36-2.56,3.3-1.12,.94-2.51,1.67-4.16,2.2-1.65,.53-3.54,.79-5.66,.79H11.73V20.13h13.01Zm-4.81,5.98v8.51h4.27c.91,0,1.72-.06,2.45-.19,.73-.13,1.35-.35,1.86-.66,.51-.31,.9-.75,1.16-1.3,.27-.55,.4-1.25,.4-2.08s-.11-1.5-.32-2.04c-.21-.54-.53-.98-.97-1.31-.44-.33-.99-.57-1.66-.71-.67-.14-1.47-.21-2.39-.21h-4.81Zm5.78,22.44c1.08,0,1.97-.13,2.66-.4,.69-.27,1.23-.61,1.62-1.04,.39-.43,.66-.91,.8-1.44,.15-.54,.22-1.08,.22-1.63,0-.63-.08-1.2-.25-1.7-.17-.5-.46-.93-.87-1.28-.41-.35-.96-.61-1.64-.8-.68-.19-1.54-.28-2.57-.28h-5.73v8.58h5.78Z"/><path class="d" d="M57.71,46.82c.06,1.33-1.58,2.84-4.69,2.84-1.54,0-5.2-1.3-5.01-5.65l15.01,.04s.57-3.24-.38-6.75c-.46-1.7-1.42-3-2.35-3.93-.94-.93-2.06-1.64-3.36-2.13-1.3-.49-2.74-.73-4.31-.73-1.81,0-3.44,.31-4.88,.94-1.44,.63-2.67,1.47-3.68,2.54-1.01,1.07-1.79,2.31-2.33,3.73-.54,1.42-.81,2.92-.81,4.51,0,2.11,.32,3.95,.95,5.54s1.49,2.91,2.58,3.98c1.09,1.07,2.36,1.87,3.81,2.41,1.45,.54,3.78,1.1,6.65,.64,5.55-.9,7.53-5.44,7.71-7.97h-4.93Zm-8.1-10.26c.76-.77,1.81-1.15,3.15-1.15,.76,0,1.41,.13,1.94,.39,.53,.26,.96,.6,1.29,1.02,.33,.42,.56,.9,.71,1.43,.14,.54,.22,1.08,.22,1.65h-8.82c.24-1.45,.75-2.56,1.51-3.33Z"/><rect class="d" x="44.39" y="24.1" width="15.47" height="3.55"/></g></g></g></g></svg>