<?xml version="1.0" encoding="UTF-8"?><svg xmlns="http://www.w3.org/2000/svg" viewBox="0 0 74.91 74.91"><defs><style>.d{fill:#fff;}.e{fill:#242424;}</style></defs><g id="a"/><g id="b"><g id="c"><g><rect class="e" width="74.91" height="74.91" rx="21.75" ry="21.75"/><path class="d" d="M55.54,18.41H19.38c-3.04,0-5.52,2.48-5.52,5.52v27.05c0,3.04,2.48,5.52,5.52,5.52H55.54c3.04,0,5.52-2.48,5.52-5.52V23.93c0-3.04-2.48-5.52-5.52-5.52Zm-3.67,5.39l-14.38,10.32-13.96-10.32h28.34Zm3.67,27.31H19.38c-.07,0-.13-.06-.13-.13V27.35l18.18,13.44,18.23-13.08v23.27c0,.07-.06,.13-.13,.13Z"/></g></g></g></svg>