<?xml version="1.0" encoding="UTF-8"?><svg xmlns="http://www.w3.org/2000/svg" viewBox="0 0 74.91 74.91"><defs><style>.d{fill:#fff;}.e{fill:#242424;}</style></defs><g id="a"/><g id="b"><g id="c"><g><rect class="e" width="74.91" height="74.91" rx="21.75" ry="21.75"/><g><g><path class="d" d="M16.58,57.28h8.86V29.33h-8.86v27.95Z"/><path class="d" d="M31.7,28.51h9.45l-.59,3.76h.1c2-2.18,3.98-3.76,7.36-3.76,4.71,0,11.27,2.56,11.27,10.35v18.42h-8.86v-15.8c0-2.78-1.75-5.45-4.61-5.45-2.65,0-5.26,2.67-5.26,5.45v15.8h-8.86V28.51Z"/></g><path class="d" d="M25.77,22.39c0,2.63-2.13,4.76-4.76,4.76s-4.76-2.13-4.76-4.76,2.13-4.76,4.76-4.76,4.76,2.13,4.76,4.76Z"/></g></g></g></g></svg>