<?xml version="1.0" encoding="UTF-8"?><svg id="Capa_2" xmlns="http://www.w3.org/2000/svg" viewBox="0 0 221.51 221.51"><defs><style>.cls-1{fill:#ff7e1b;}.cls-2{fill:none;stroke:#ff7e1b;stroke-miterlimit:10;stroke-width:10px;}.cls-3{fill:#41322a;}</style></defs><g id="Layer_1"><path class="cls-3" d="M208.54,70.33c5.31,12.83,7.97,26.31,7.97,40.42s-2.66,27.59-7.97,40.42c-5.31,12.84-12.99,24.28-23.04,34.33s-21.49,17.73-34.33,23.04c-12.83,5.31-26.3,7.97-40.42,7.97s-27.59-2.66-40.42-7.97c-12.83-5.31-24.27-12.99-34.32-23.04-10.06-10.05-17.74-21.49-23.05-34.33-5.31-12.83-7.96-26.3-7.96-40.42s2.65-27.59,7.96-40.42c5.31-12.83,12.99-24.27,23.05-34.32,10.05-10.05,21.49-17.74,34.32-23.05,12.83-5.31,26.31-7.96,40.42-7.96s27.59,2.65,40.42,7.96c12.84,5.31,24.28,13,34.33,23.05,10.05,10.05,17.73,21.49,23.04,34.32Zm-48.38,85.87V88.83c0-.64-.25-.96-.75-.96h-13.69c-.71,0-1.07,.29-1.07,.85l.11,67.48c0,.71,.35,1.07,1.07,1.07h13.36c.65,0,.97-.36,.97-1.07Zm.85-86.72c0-5.21-2.85-8.13-8.55-8.77-2.57,0-4.69,.77-6.37,2.3-1.67,1.53-2.51,3.69-2.51,6.47,0,5.56,2.89,8.48,8.66,8.77,2.57,0,4.67-.77,6.31-2.3,1.64-1.54,2.46-3.69,2.46-6.47Zm-29.73,87.79c.43,0,.65-.18,.65-.54,0-.14-4.55-15.71-13.64-46.73-9.09-31.01-13.7-46.56-13.85-46.67-.14-.11-6.41-.16-18.82-.16-.35,0-.53,.28-.53,.85-.07,2-.2,3.5-.38,4.5-.17,.99-4.4,16.03-12.67,45.12-8.12,28.37-12.19,42.67-12.19,42.88,0,.29,.06,.48,.16,.59,.11,.11,2.44,.16,7.01,.16s7.13-.05,7.27-.16,2.53-8.86,7.16-26.25h27.16l7.17,25.87c.14,.36,.53,.54,1.17,.54h14.33Z"/><path class="cls-1" d="M160.16,88.83v67.37c0,.71-.32,1.07-.97,1.07h-13.36c-.72,0-1.07-.36-1.07-1.07l-.11-67.48c0-.56,.36-.85,1.07-.85h13.69c.5,0,.75,.32,.75,.96Z"/><path class="cls-1" d="M152.46,60.71c5.7,.64,8.55,3.56,8.55,8.77,0,2.78-.82,4.93-2.46,6.47-1.64,1.53-3.74,2.3-6.31,2.3-5.77-.29-8.66-3.21-8.66-8.77,0-2.78,.84-4.94,2.51-6.47,1.68-1.53,3.8-2.3,6.37-2.3Z"/><path class="cls-1" d="M131.93,156.73c0,.36-.22,.54-.65,.54h-14.33c-.64,0-1.03-.18-1.17-.54l-7.17-25.87h-27.16c-4.63,17.39-7.02,26.14-7.16,26.25s-2.57,.16-7.27,.16-6.9-.05-7.01-.16c-.1-.11-.16-.3-.16-.59,0-.21,4.07-14.51,12.19-42.88,8.27-29.09,12.5-44.13,12.67-45.12,.18-1,.31-2.5,.38-4.5,0-.57,.18-.85,.53-.85,12.41,0,18.68,.05,18.82,.16,.15,.11,4.76,15.66,13.85,46.67,9.09,31.02,13.64,46.59,13.64,46.73Zm-26.84-39.67l-2.78-11.33c-3.64-13.83-6.07-23.49-7.28-28.98h-.21c-1.57,8.2-4.85,21.64-9.84,40.31h20.11Z"/><path class="cls-3" d="M102.31,105.73l2.78,11.33h-20.11c4.99-18.67,8.27-32.11,9.84-40.31h.21c1.21,5.49,3.64,15.15,7.28,28.98Z"/><path class="cls-2" d="M70.33,208.54c-12.83-5.31-24.27-12.99-34.32-23.04-10.06-10.05-17.74-21.49-23.05-34.33-5.31-12.83-7.96-26.3-7.96-40.42s2.65-27.59,7.96-40.42c5.31-12.83,12.99-24.27,23.05-34.32,10.05-10.05,21.49-17.74,34.32-23.05,12.83-5.31,26.31-7.96,40.42-7.96s27.59,2.65,40.42,7.96c12.84,5.31,24.28,13,34.33,23.05,10.05,10.05,17.73,21.49,23.04,34.32,5.31,12.83,7.97,26.31,7.97,40.42s-2.66,27.59-7.97,40.42c-5.31,12.84-12.99,24.28-23.04,34.33s-21.49,17.73-34.33,23.04c-12.83,5.31-26.3,7.97-40.42,7.97s-27.59-2.66-40.42-7.97Z"/></g></svg>