<?xml version="1.0" encoding="UTF-8"?><svg xmlns="http://www.w3.org/2000/svg" viewBox="0 0 700 700"><g id="a"><path d="M522.87,581.15H128.84c-26.01,0-47.17-21.16-47.17-47.17V139.94c0-26.01,21.16-47.17,47.17-47.17h394.04c26.01,0,47.17,21.16,47.17,47.17v394.04c0,26.01-21.16,47.17-47.18,47.17h0ZM128.84,120.52c-10.71,0-19.43,8.71-19.43,19.43v394.04c0,10.71,8.71,19.43,19.43,19.43h394.04c10.71,0,19.43-8.71,19.43-19.43V139.95c0-10.71-8.71-19.43-19.43-19.43H128.84Z"/><g><path d="M265.97,371.5l-19.27,58.36h-24.78l63.32-185.55h28.63l63.32,185.56h-25.61l-19.82-58.36h-65.8Zm61.12-18.73l-18.44-53.41c-4.13-12.11-6.88-23.12-9.64-33.86h-.55c-2.75,10.73-5.5,22.3-9.36,33.59l-18.17,53.69h56.16Z"/><path d="M429.78,259.18c0,8.26-5.78,14.86-15.42,14.86-8.81,0-14.59-6.61-14.59-14.86s6.06-15.14,15.14-15.14c8.82,0,14.87,6.61,14.87,15.14Zm-26.98,170.69v-133.25h24.23v133.25h-24.23Z"/></g></g><g id="b"/><g id="c"/><g id="d"/><g id="e"/></svg>