<?xml version="1.0" encoding="UTF-8"?><svg xmlns="http://www.w3.org/2000/svg" viewBox="0 0 700 700"><g id="a"/><g id="b"><path d="M531.47,581.15H137.43c-26.01,0-47.17-21.16-47.17-47.17V139.94c0-26.01,21.16-47.17,47.17-47.17h394.04c26.01,0,47.17,21.16,47.17,47.17v394.04c0,26.01-21.16,47.17-47.17,47.17ZM137.44,120.52c-10.71,0-19.43,8.71-19.43,19.43v394.04c0,10.71,8.71,19.43,19.43,19.43h394.04c10.71,0,19.43-8.71,19.43-19.43V139.95c0-10.71-8.72-19.43-19.43-19.43H137.44Z"/><g><path d="M225.7,245.56c11.56-1.93,26.71-3.58,45.98-3.58,23.68,0,41.02,5.5,52.03,15.42,9.91,8.81,16.25,22.3,16.25,38.82s-4.96,30.01-14.32,39.64c-12.94,13.49-33.31,20.37-56.71,20.37-7.16,0-13.77-.28-19.27-1.65v74.33h-23.95V245.56Zm23.96,89.47c5.23,1.37,11.84,1.92,19.82,1.92,28.91,0,46.53-14.31,46.53-39.37s-17.62-36.61-43.77-36.61c-10.46,0-18.45,.83-22.57,1.93v72.13Z"/><path d="M361.98,404.41c7.43,4.41,20.1,9.36,32.21,9.36,17.34,0,25.61-8.53,25.61-19.82s-6.88-17.62-24.5-24.23c-24.23-8.81-35.51-21.75-35.51-37.71,0-21.47,17.62-39.09,45.97-39.09,13.49,0,25.33,3.58,32.48,8.25l-5.78,17.62c-5.23-3.3-14.86-7.98-27.25-7.98-14.32,0-22.02,8.26-22.02,18.17,0,11.01,7.71,15.96,25.05,22.85,22.85,8.54,34.96,20.1,34.96,39.92,0,23.67-18.45,40.19-49.55,40.19-14.59,0-28.08-3.86-37.44-9.36l5.78-18.17Z"/></g></g><g id="c"/><g id="d"/><g id="e"/></svg>