<?xml version="1.0" encoding="UTF-8"?><svg id="Capa_2" xmlns="http://www.w3.org/2000/svg" viewBox="0 0 221.52 221.51"><defs><style>.cls-1{fill:#28253a;}.cls-2{fill:none;stroke:#37c5ff;stroke-miterlimit:10;stroke-width:10px;}.cls-3{fill:#37c5ff;}</style></defs><g id="Layer_1"><path class="cls-1" d="M208.55,70.33c5.31,12.83,7.97,26.31,7.97,40.42s-2.66,27.59-7.97,40.42c-5.31,12.84-12.99,24.28-23.05,34.33-10.05,10.05-21.49,17.73-34.32,23.04-12.83,5.31-26.31,7.97-40.42,7.97s-27.59-2.66-40.42-7.97c-12.84-5.31-24.28-12.99-34.33-23.04-10.05-10.05-17.73-21.49-23.04-34.33-5.32-12.83-7.97-26.3-7.97-40.42s2.65-27.59,7.97-40.42c5.31-12.83,12.99-24.27,23.04-34.32,10.05-10.05,21.49-17.74,34.33-23.05,12.83-5.31,26.3-7.96,40.42-7.96s27.59,2.65,40.42,7.96c12.83,5.31,24.27,13,34.32,23.05,10.06,10.05,17.74,21.49,23.05,34.32Zm-44.86,60.1c0-4.71-1.39-8.34-4.17-10.91-2.85-2.63-7.92-4.81-15.19-6.52-7.05-1.78-11.19-3.17-12.4-4.17-.86-.71-1.28-1.57-1.28-2.57,0-1.35,.49-2.35,1.49-2.99,1.5-1.14,3.99-1.71,7.49-1.71,2.85,0,5.06,.6,6.63,1.81,1.5,1.15,2.49,2.79,2.99,4.92l12.73-2.56c-1.29-4.92-3.64-8.59-7.06-11.02-3.28-2.49-8.45-3.74-15.5-3.74s-12.66,1.68-16.15,5.03c-3.42,3.28-5.13,7.27-5.13,11.97,0,5.35,1.99,9.48,5.98,12.41,2.93,2.21,9.84,4.63,20.75,7.27,2.21,.64,3.67,1.28,4.38,1.92,.57,.79,.86,1.72,.86,2.78,0,1.65-.54,2.93-1.6,3.85-1.79,1.43-4.39,2.14-7.81,2.14s-5.78-.75-7.49-2.24c-1.71-1.5-2.85-3.67-3.42-6.53l-13.69,2.25c1.36,5.35,4.03,9.52,8.02,12.51,4.07,3.14,9.52,4.71,16.36,4.71,7.63,0,13.41-1.82,17.33-5.46,3.92-3.7,5.88-8.09,5.88-13.15Zm-52.08-35.72c0-6.05-1.39-11.01-4.17-14.86-2.71-3.85-6.06-6.34-10.05-7.49-2.57-.71-8.2-1.06-16.9-1.06h-22.56v76.45h14.12v-28.87h9.3c6.42,0,11.26-.36,14.54-1.07,2.57-.64,5.06-1.82,7.49-3.53,2.42-1.85,4.42-4.42,5.99-7.7,1.49-3.21,2.24-7.16,2.24-11.87Z"/><path class="cls-3" d="M159.52,119.52c2.78,2.57,4.17,6.2,4.17,10.91,0,5.06-1.96,9.45-5.88,13.15-3.92,3.64-9.7,5.46-17.33,5.46-6.84,0-12.29-1.57-16.36-4.71-3.99-2.99-6.66-7.16-8.02-12.51l13.69-2.25c.57,2.86,1.71,5.03,3.42,6.53,1.71,1.49,4.21,2.24,7.49,2.24s6.02-.71,7.81-2.14c1.06-.92,1.6-2.2,1.6-3.85,0-1.06-.29-1.99-.86-2.78-.71-.64-2.17-1.28-4.38-1.92-10.91-2.64-17.82-5.06-20.75-7.27-3.99-2.93-5.98-7.06-5.98-12.41,0-4.7,1.71-8.69,5.13-11.97,3.49-3.35,8.87-5.03,16.15-5.03s12.22,1.25,15.5,3.74c3.42,2.43,5.77,6.1,7.06,11.02l-12.73,2.56c-.5-2.13-1.49-3.77-2.99-4.92-1.57-1.21-3.78-1.81-6.63-1.81-3.5,0-5.99,.57-7.49,1.71-1,.64-1.49,1.64-1.49,2.99,0,1,.42,1.86,1.28,2.57,1.21,1,5.35,2.39,12.4,4.17,7.27,1.71,12.34,3.89,15.19,6.52Z"/><path class="cls-3" d="M107.44,79.85c2.78,3.85,4.17,8.81,4.17,14.86,0,4.71-.75,8.66-2.24,11.87-1.57,3.28-3.57,5.85-5.99,7.7-2.43,1.71-4.92,2.89-7.49,3.53-3.28,.71-8.12,1.07-14.54,1.07h-9.3v28.87h-14.12V71.3h22.56c8.7,0,14.33,.35,16.9,1.06,3.99,1.15,7.34,3.64,10.05,7.49Zm-11.97,21.07c1.13-1.79,1.71-3.82,1.71-6.1,0-2.71-.83-4.95-2.46-6.74-1.5-1.78-3.43-2.88-5.78-3.31-1.64-.43-4.99-.64-10.05-.64h-6.84v21.7h7.7c5.63,0,9.37-.35,11.22-1.06,1.86-.93,3.35-2.21,4.5-3.85Z"/><path class="cls-1" d="M97.18,94.82c0,2.28-.58,4.31-1.71,6.1-1.15,1.64-2.64,2.92-4.5,3.85-1.85,.71-5.59,1.06-11.22,1.06h-7.7v-21.7h6.84c5.06,0,8.41,.21,10.05,.64,2.35,.43,4.28,1.53,5.78,3.31,1.63,1.79,2.46,4.03,2.46,6.74Z"/><path class="cls-2" d="M70.34,208.54c-12.84-5.31-24.28-12.99-34.33-23.04-10.05-10.05-17.73-21.49-23.04-34.33-5.32-12.83-7.97-26.3-7.97-40.42s2.65-27.59,7.97-40.42c5.31-12.83,12.99-24.27,23.04-34.32,10.05-10.05,21.49-17.74,34.33-23.05,12.83-5.31,26.3-7.96,40.42-7.96s27.59,2.65,40.42,7.96c12.83,5.31,24.27,13,34.32,23.05,10.06,10.05,17.74,21.49,23.05,34.32,5.31,12.83,7.97,26.31,7.97,40.42s-2.66,27.59-7.97,40.42c-5.31,12.84-12.99,24.28-23.05,34.33-10.05,10.05-21.49,17.73-34.32,23.04-12.83,5.31-26.31,7.97-40.42,7.97s-27.59-2.66-40.42-7.97Z"/></g></svg>