<?xml version="1.0" encoding="UTF-8"?><svg id="Capa_2" xmlns="http://www.w3.org/2000/svg" viewBox="0 0 221.51 221.51"><defs><style>.cls-1{fill:#2e001e;}.cls-2{fill:none;stroke:#ff2bc2;stroke-miterlimit:10;stroke-width:10px;}.cls-3{fill:#ff2bc2;}</style></defs><g id="Layer_1"><path class="cls-1" d="M208.55,70.33c5.31,12.83,7.96,26.31,7.96,40.42s-2.65,27.59-7.96,40.42c-5.31,12.84-12.99,24.28-23.05,34.33-10.05,10.05-21.49,17.73-34.32,23.04-12.83,5.31-26.31,7.97-40.42,7.97s-27.59-2.66-40.42-7.97c-12.84-5.31-24.28-12.99-34.33-23.04-10.05-10.05-17.73-21.49-23.04-34.33-5.32-12.83-7.97-26.3-7.97-40.42s2.65-27.59,7.97-40.42c5.31-12.83,12.99-24.27,23.04-34.32,10.05-10.05,21.49-17.74,34.33-23.05,12.83-5.31,26.3-7.96,40.42-7.96s27.59,2.65,40.42,7.96c12.83,5.31,24.27,13,34.32,23.05,10.06,10.05,17.74,21.49,23.05,34.32Zm-45.02,74.05c.03-.1,.05-.26,.05-.48-.21-2.71-.32-5.06-.32-7.05V71.19c0-.22-.05-.38-.16-.48-.11-.11-.3-.16-.59-.16h-11.65c-.22,0-.38,.07-.48,.21-.11,.14-.16,.32-.16,.54v18.71c-.79-.07-1.41-.13-1.88-.16-.46-.04-1.08-.06-1.87-.06-8.84,0-15.81,2.89-20.9,8.67-5.1,5.77-7.65,12.87-7.65,21.28,0,9.76,2.51,17.05,7.54,21.86,5.03,4.82,11.46,7.22,19.3,7.22,6.06,0,12.19-1.39,18.39-4.17,.22-.07,.34-.16,.38-.27Zm-49.78,3.53c.07-.25,.04-.55-.11-.91l-20.21-39.03,19.04-36.35c.28-.79,.11-1.18-.54-1.18h-11.55c-.35,0-.62,.09-.8,.27s-.3,.37-.37,.59v.1c-1.29,2.5-2.53,5.07-3.74,7.7-3.21,6.92-6.39,13.83-9.52,20.75h-.11c-3.21-7.06-6.49-14.05-9.84-20.96-1.21-2.57-2.42-5.1-3.63-7.59-.07-.36-.2-.59-.38-.7s-.48-.16-.91-.16h-12.29c-.29,0-.5,.12-.64,.37-.15,.25-.11,.52,.1,.81l19.04,37.64-19.68,37.85c-.21,.21-.28,.43-.21,.64,.07,.22,.28,.32,.64,.32h11.76c.64,0,1.11-.21,1.39-.64,4.71-9.84,9.31-19.71,13.8-29.62h.1c4.85,10.12,9.55,19.96,14.12,29.51,.07,.29,.23,.52,.48,.7s.59,.27,1.02,.27h12.4c.35,0,.57-.13,.64-.38Z"/><path class="cls-3" d="M163.58,143.9c0,.22-.02,.38-.05,.48-.04,.11-.16,.2-.38,.27-6.2,2.78-12.33,4.17-18.39,4.17-7.84,0-14.27-2.4-19.3-7.22-5.03-4.81-7.54-12.1-7.54-21.86,0-8.41,2.55-15.51,7.65-21.28,5.09-5.78,12.06-8.67,20.9-8.67,.79,0,1.41,.02,1.87,.06,.47,.03,1.09,.09,1.88,.16v-18.71c0-.22,.05-.4,.16-.54,.1-.14,.26-.21,.48-.21h11.65c.29,0,.48,.05,.59,.16,.11,.1,.16,.26,.16,.48v65.66c0,1.99,.11,4.34,.32,7.05Zm-13.47-7.05l.11-35.61c-1.15-.5-2.54-.75-4.18-.75-10.12,.78-15.18,6.99-15.18,18.6,0,6.63,1.37,11.39,4.12,14.28,2.74,2.89,6.11,4.33,10.1,4.33,1.78,0,3.46-.28,5.03-.85Z"/><path class="cls-1" d="M150.22,101.24l-.11,35.61c-1.57,.57-3.25,.85-5.03,.85-3.99,0-7.36-1.44-10.1-4.33-2.75-2.89-4.12-7.65-4.12-14.28,0-11.61,5.06-17.82,15.18-18.6,1.64,0,3.03,.25,4.18,.75Z"/><path class="cls-3" d="M113.64,147c.15,.36,.18,.66,.11,.91s-.29,.38-.64,.38h-12.4c-.43,0-.77-.09-1.02-.27s-.41-.41-.48-.7c-4.57-9.55-9.27-19.39-14.12-29.51h-.1c-4.49,9.91-9.09,19.78-13.8,29.62-.28,.43-.75,.64-1.39,.64h-11.76c-.36,0-.57-.1-.64-.32-.07-.21,0-.43,.21-.64l19.68-37.85-19.04-37.64c-.21-.29-.25-.56-.1-.81,.14-.25,.35-.37,.64-.37h12.29c.43,0,.73,.05,.91,.16s.31,.34,.38,.7c1.21,2.49,2.42,5.02,3.63,7.59,3.35,6.91,6.63,13.9,9.84,20.96h.11c3.13-6.92,6.31-13.83,9.52-20.75,1.21-2.63,2.45-5.2,3.74-7.7v-.1c.07-.22,.19-.41,.37-.59s.45-.27,.8-.27h11.55c.65,0,.82,.39,.54,1.18l-19.04,36.35,20.21,39.03Z"/><path class="cls-2" d="M70.34,208.54c-12.84-5.31-24.28-12.99-34.33-23.04-10.05-10.05-17.73-21.49-23.04-34.33-5.32-12.83-7.97-26.3-7.97-40.42s2.65-27.59,7.97-40.42c5.31-12.83,12.99-24.27,23.04-34.32,10.05-10.05,21.49-17.74,34.33-23.05,12.83-5.31,26.3-7.96,40.42-7.96s27.59,2.65,40.42,7.96c12.83,5.31,24.27,13,34.32,23.05,10.06,10.05,17.74,21.49,23.05,34.32s7.96,26.31,7.96,40.42-2.65,27.59-7.96,40.42c-5.31,12.84-12.99,24.28-23.05,34.33-10.05,10.05-21.49,17.73-34.32,23.04-12.83,5.31-26.31,7.97-40.42,7.97s-27.59-2.66-40.42-7.97Z"/></g></svg>