<?xml version="1.0" encoding="UTF-8"?><svg xmlns="http://www.w3.org/2000/svg" viewBox="0 0 700 700"><g id="a"/><g id="b"/><g id="c"/><g id="d"/><g id="e"><g><path d="M296.41,340.08c-1.31-2.41-1.31-5.32,0-7.73l39.53-75.81h0c1.31-2.55,1.2-5.6-.28-8.05-1.49-2.46-4.14-3.96-7.01-3.98h-25.48c-3.28,.11-6.23,2.04-7.64,5.01l-12.56,29.78c-1.93,4.39-3.87,8.79-5.8,13.79-1.93,5.01-4.04,10.1-6.06,15.99h-1.14c-2.72-5.89-5.01-11.24-7.11-15.99-2.11-4.74-4.13-9.4-6.24-13.79l-13.88-30.04h0c-1.45-2.81-4.31-4.62-7.47-4.74h-27.4c-2.9,0-5.58,1.52-7.07,4-1.5,2.48-1.57,5.56-.22,8.12l39.53,73.7c1.31,2.44,1.31,5.37,0,7.81l-42.6,79.06h0c-1.11,2.59-.91,5.55,.53,7.97,1.44,2.41,3.95,4,6.76,4.25h25.65c3.28-.11,6.23-2.04,7.64-5.01l15.02-32.85c2.11-4.92,4.22-9.75,6.24-14.58,2.02-4.83,4.13-10.01,6.24-15.64h1.14c2.63,5.62,5.01,10.89,7.21,15.64l6.68,14.58,15.99,32.85c1.35,2.85,4.23,4.66,7.38,4.66h27.32c2.9-.01,5.59-1.56,7.06-4.06,1.48-2.5,1.53-5.59,.13-8.14l-42.08-76.78Z"/><path d="M478.24,266.3c-8.46-7.57-18.47-13.18-29.34-16.43-12.4-3.69-25.28-5.5-38.22-5.36h-43.92c-4.56,0-8.25,3.7-8.25,8.26v168.05c0,4.56,3.69,8.25,8.25,8.25h46.12c12.53,.15,24.99-1.78,36.89-5.71,10.68-3.65,20.41-9.65,28.46-17.57,8.24-8.14,14.52-18.06,18.36-28.99,4.65-13.25,6.88-27.24,6.59-41.29,.32-13.96-1.91-27.86-6.59-41.02-3.83-10.7-10.12-20.36-18.36-28.19h0Zm-21.35,97.5c-2.12,6.86-5.75,13.17-10.62,18.44-4.6,4.6-10.23,8.03-16.43,10.01-6.97,2.16-14.23,3.2-21.53,3.08h-7.9v-117.09h7.9c7.27-.12,14.53,.83,21.53,2.81,6.19,1.72,11.84,4.99,16.43,9.49,4.85,4.96,8.49,10.97,10.62,17.57,2.75,8.93,4.03,18.24,3.78,27.58,.28,9.57-1,19.12-3.78,28.28v-.17Z"/></g><path d="M547.03,581.15H152.99c-26.01,0-47.17-21.16-47.17-47.17V139.94c0-26.01,21.16-47.17,47.17-47.17h394.04c26.01,0,47.17,21.16,47.17,47.17v394.04c0,26.01-21.16,47.17-47.17,47.17ZM153,120.52c-10.71,0-19.43,8.71-19.43,19.43v394.04c0,10.71,8.71,19.43,19.43,19.43h394.04c10.71,0,19.43-8.71,19.43-19.43V139.95c0-10.71-8.72-19.43-19.43-19.43H153Z"/></g></svg>